# Blender v2.79 (sub 0) OBJ File: 'ft_sink.blend'
# www.blender.org
mtllib ft_sink.mtl
o ft_sink
v 0.189094 -0.000000 -0.282469
v 0.189095 0.000000 0.282469
v -0.189095 0.000000 0.282469
v -0.189095 -0.000000 -0.282469
v 0.214020 -0.000000 -0.309168
v 0.214021 0.000000 0.309167
v -0.214021 0.000000 0.309167
v -0.214021 -0.000000 -0.309167
v 0.189094 -0.200000 -0.282469
v 0.189095 -0.200000 0.282469
v -0.189095 -0.200000 0.282469
v -0.189095 -0.200000 -0.282469
v 0.214020 -0.200000 -0.309168
v 0.214021 -0.200000 0.309167
v -0.214021 -0.200000 0.309167
v -0.214021 -0.200000 -0.309167
v 0.189094 -0.225673 -0.282469
v 0.189095 -0.225673 0.282469
v -0.189095 -0.225673 0.282469
v -0.189095 -0.225673 -0.282469
v 0.214020 -0.225673 -0.309168
v 0.214021 -0.225673 0.309167
v -0.214021 -0.225673 0.309167
v -0.214021 -0.225673 -0.309167
v 0.238480 -0.000000 -0.094272
v 0.238481 0.000000 -0.039865
v 0.291058 -0.000000 -0.094272
v 0.291059 0.000000 -0.039865
v 0.238480 -0.000000 0.065401
v 0.238481 0.000000 0.119807
v 0.291058 -0.000000 0.065401
v 0.291059 0.000000 0.119807
v 0.251625 0.019243 -0.080670
v 0.251625 0.019243 -0.053467
v 0.277914 0.019243 -0.080670
v 0.277914 0.019243 -0.053467
v 0.251625 0.019243 0.079003
v 0.251625 0.019243 0.106206
v 0.277914 0.019243 0.079003
v 0.277914 0.019243 0.106206
v 0.236401 0.019243 -0.067553
v 0.265255 0.019243 -0.038701
v 0.264284 0.019243 -0.095437
v 0.293138 0.019243 -0.066584
v 0.236401 0.019243 0.092119
v 0.265255 0.019243 0.120972
v 0.264284 0.019243 0.064236
v 0.293138 0.019243 0.093089
v 0.236401 0.036724 -0.067553
v 0.265255 0.036724 -0.038701
v 0.264284 0.036724 -0.095437
v 0.293138 0.036724 -0.066584
v 0.236401 0.036724 0.092119
v 0.265255 0.036724 0.120972
v 0.264284 0.036724 0.064236
v 0.293138 0.036724 0.093089
v 0.238480 -0.000000 -0.013903
v 0.238481 0.000000 0.040504
v 0.291058 -0.000000 -0.013903
v 0.291059 0.000000 0.040504
v 0.238480 0.279715 -0.013903
v 0.238481 0.279715 0.040504
v 0.291058 0.333411 -0.013903
v 0.291059 0.333411 0.040504
v 0.055510 0.279715 -0.013903
v 0.055510 0.279715 0.040504
v 0.055510 0.333411 -0.013903
v 0.055510 0.333411 0.040504
v 0.107809 0.279715 -0.008903
v 0.107810 0.279715 0.035504
v 0.060510 0.279715 -0.008903
v 0.060510 0.279715 0.035504
v 0.100928 0.270997 -0.002021
v 0.100928 0.270997 0.028622
v 0.067391 0.270997 -0.002021
v 0.067391 0.270997 0.028622
v 0.107809 0.270997 -0.008903
v 0.107810 0.270997 0.035504
v 0.060510 0.270997 -0.008903
v 0.060510 0.270997 0.035504
v 0.100928 0.278019 -0.002021
v 0.100928 0.278019 0.028622
v 0.067391 0.278019 -0.002021
v 0.067391 0.278019 0.028622
vt 0.678972 0.143705
vt 0.678972 0.363417
vt 0.678972 0.363417
vt 0.678972 0.143705
vt 0.694483 0.377898
vt 0.335255 0.377898
vt 0.350766 0.363417
vt 0.335255 0.129223
vt 0.350766 0.143704
vt 0.694483 0.129224
vt 0.350766 0.143704
vt 0.350766 0.363417
vt 0.694483 0.129224
vt 0.694483 0.377898
vt 0.335255 0.129223
vt 0.335255 0.377898
vt 0.694483 0.129224
vt 0.694483 0.377898
vt 0.335255 0.377898
vt 0.335255 0.129223
vt 0.350766 0.363417
vt 0.678972 0.363417
vt 0.678972 0.143705
vt 0.350766 0.143704
vt 0.339265 0.836205
vt 0.339265 0.616493
vt 0.667471 0.616493
vt 0.667471 0.836206
vt 0.480207 0.864897
vt 0.448600 0.864897
vt 0.448600 0.895442
vt 0.480207 0.895443
vt 0.572971 0.864897
vt 0.541363 0.864897
vt 0.541363 0.895442
vt 0.572971 0.895443
vt 0.472305 0.872534
vt 0.472305 0.887806
vt 0.456502 0.887806
vt 0.456502 0.872533
vt 0.565069 0.872534
vt 0.565069 0.887806
vt 0.549265 0.887806
vt 0.549265 0.872533
vt 0.537352 0.099459
vt 0.554114 0.116221
vt 0.570314 0.100022
vt 0.553551 0.083260
vt 0.444589 0.099459
vt 0.461351 0.116221
vt 0.477550 0.100022
vt 0.460788 0.083260
vt 0.537352 0.099459
vt 0.553551 0.083260
vt 0.570314 0.100022
vt 0.554114 0.116221
vt 0.444589 0.099459
vt 0.460788 0.083260
vt 0.477550 0.100022
vt 0.461351 0.116221
vt 0.526899 0.864897
vt 0.495291 0.864897
vt 0.495291 0.895442
vt 0.526899 0.895443
vt 0.526899 0.864897
vt 0.526899 0.895443
vt 0.526899 0.758598
vt 0.526899 0.758598
vt 0.495291 0.895442
vt 0.495291 0.864897
vt 0.495291 0.758598
vt 0.495291 0.758598
vt 0.520041 0.190928
vt 0.520041 0.218407
vt 0.494243 0.218407
vt 0.494243 0.190928
vt 0.516043 0.214409
vt 0.516043 0.194926
vt 0.516043 0.194926
vt 0.516043 0.214409
vt 0.494243 0.218407
vt 0.494243 0.190928
vt 0.520041 0.190928
vt 0.520041 0.218407
vt 0.498240 0.194926
vt 0.498240 0.214409
vt 0.502193 0.784984
vt 0.519996 0.784985
vt 0.519996 0.765501
vt 0.502193 0.765501
vt 0.498240 0.214409
vt 0.498240 0.194926
vn 0.0000 0.0000 1.0000
vn -0.0000 1.0000 -0.0000
vn -1.0000 0.0000 0.0000
vn 1.0000 0.0000 -0.0000
vn -0.0000 0.0000 -1.0000
vn 0.0000 -1.0000 0.0000
vn -0.8258 0.5640 0.0000
vn -0.0000 0.5772 -0.8166
vn 0.8258 0.5640 -0.0000
vn 0.0000 0.5772 0.8166
vn -0.7071 0.0000 -0.7071
vn 0.7071 0.0000 -0.7071
vn 0.7071 0.0000 0.7071
vn -0.7071 0.0000 0.7071
usemtl ft_sink
s off
f 1/1/1 4/2/1 12/3/1 9/4/1
f 4/2/2 8/5/2 7/6/2 3/7/2
f 3/7/2 7/6/2 6/8/2 2/9/2
f 1/1/2 5/10/2 8/5/2 4/2/2
f 2/9/2 6/8/2 5/10/2 1/1/2
f 2/9/3 1/1/3 9/4/3 10/11/3
f 4/2/4 3/7/4 11/12/4 12/3/4
f 3/7/5 2/9/5 10/11/5 11/12/5
f 8/5/5 5/10/5 13/13/5 16/14/5
f 5/10/4 6/8/4 14/15/4 13/13/4
f 7/6/3 8/5/3 16/14/3 15/16/3
f 6/8/1 7/6/1 15/16/1 14/15/1
f 16/14/5 13/13/5 21/17/5 24/18/5
f 14/15/1 15/16/1 23/19/1 22/20/1
f 15/16/3 16/14/3 24/18/3 23/19/3
f 13/13/4 14/15/4 22/20/4 21/17/4
f 19/21/6 20/22/6 17/23/6 18/24/6
f 19/21/6 23/19/6 24/18/6 20/22/6
f 18/24/6 22/20/6 23/19/6 19/21/6
f 17/23/6 21/17/6 22/20/6 18/24/6
f 21/17/6 17/23/6 20/22/6 24/18/6
f 9/25/2 12/26/2 11/27/2 10/28/2
f 26/29/6 25/30/6 27/31/6 28/32/6
f 30/33/6 29/34/6 31/35/6 32/36/6
f 34/37/2 36/38/2 35/39/2 33/40/2
f 38/41/2 40/42/2 39/43/2 37/44/2
f 25/30/7 26/29/7 34/37/7 33/40/7
f 31/35/8 29/34/8 37/44/8 39/43/8
f 32/36/9 31/35/9 39/43/9 40/42/9
f 27/31/8 25/30/8 33/40/8 35/39/8
f 28/32/9 27/31/9 35/39/9 36/38/9
f 30/33/10 32/36/10 40/42/10 38/41/10
f 29/34/7 30/33/7 38/41/7 37/44/7
f 26/29/10 28/32/10 36/38/10 34/37/10
f 42/45/6 41/46/6 43/47/6 44/48/6
f 46/49/6 45/50/6 47/51/6 48/52/6
f 50/53/2 52/54/2 51/55/2 49/56/2
f 54/57/2 56/58/2 55/59/2 53/60/2
f 43/47/11 41/46/11 49/56/11 51/55/11
f 44/48/12 43/47/12 51/55/12 52/54/12
f 46/49/13 48/52/13 56/58/13 54/57/13
f 45/50/14 46/49/14 54/57/14 53/60/14
f 42/45/13 44/48/13 52/54/13 50/53/13
f 41/46/14 42/45/14 50/53/14 49/56/14
f 47/51/11 45/50/11 53/60/11 55/59/11
f 48/52/12 47/51/12 55/59/12 56/58/12
f 58/61/6 57/62/6 59/63/6 60/64/6
f 62/65/1 64/66/1 68/67/1 66/68/1
f 60/64/4 59/63/4 63/69/4 64/66/4
f 58/61/1 60/64/1 64/66/1 62/65/1
f 57/62/3 58/61/3 62/65/3 61/70/3
f 59/63/5 57/62/5 61/70/5 63/69/5
f 66/68/3 68/67/3 67/71/3 65/72/3
f 61/70/6 62/65/6 66/68/6 65/72/6
f 63/69/5 61/70/5 65/72/5 67/71/5
f 64/66/2 63/69/2 67/71/2 68/67/2
f 69/73/2 71/74/2 72/75/2 70/76/2
f 75/77/1 73/78/1 81/79/1 83/80/1
f 70/76/1 72/75/1 80/81/1 78/82/1
f 69/73/4 70/76/4 78/82/4 77/83/4
f 71/74/5 69/73/5 77/83/5 79/84/5
f 72/75/3 71/74/3 79/84/3 80/81/3
f 74/85/6 73/78/6 77/83/6 78/82/6
f 75/77/6 76/86/6 80/81/6 79/84/6
f 76/86/6 74/85/6 78/82/6 80/81/6
f 73/78/6 75/77/6 79/84/6 77/83/6
f 81/87/6 82/88/6 84/89/6 83/90/6
f 76/86/4 75/77/4 83/80/4 84/91/4
f 74/85/5 76/86/5 84/91/5 82/92/5
f 73/78/3 74/85/3 82/92/3 81/79/3
