# Blender v2.90.0 OBJ File: 'brand signs.blend'
# www.blender.org
mtllib brand_sign_middle_trin.mtl
o Cube
v -0.500000 0.000000 0.472595
v -0.500000 1.000000 0.472595
v -0.500000 0.000000 -0.472595
v -0.500000 1.000000 -0.472595
v 0.500000 0.000000 0.472595
v 0.500000 1.000000 0.472595
v 0.500000 0.000000 -0.472595
v 0.500000 1.000000 -0.472595
v 0.166667 0.000000 -0.500000
v -0.166667 0.000000 -0.500000
v -0.166667 1.000000 -0.500000
v 0.166667 1.000000 -0.500000
v -0.166667 0.000000 0.500000
v 0.166667 0.000000 0.500000
v 0.166667 1.000000 0.500000
v -0.166667 1.000000 0.500000
vt 0.437500 0.062510
vt 0.437500 0.436916
vt 0.062500 0.436916
vt 0.062500 0.062510
vt 0.062500 0.312430
vt 0.437500 0.312430
vt 0.437500 0.436916
vt 0.062500 0.436916
vt 0.437500 0.062510
vt 0.062500 0.436916
vt 0.062500 0.062510
vt 0.437500 0.188137
vt 0.062500 0.188137
vt 0.062500 0.062510
vt 0.062500 0.188137
vt 0.062500 0.062510
vt 0.437500 0.062510
vt 0.437500 0.188137
vt 0.062500 0.188137
vt 0.062500 0.062510
vt 0.437500 0.062510
vt 0.437500 0.188137
vt 0.062500 0.436916
vt 0.062500 0.312430
vt 0.437500 0.312430
vt 0.437500 0.436916
vt 0.062500 0.436916
vt 0.062500 0.312430
vt 0.437500 0.312430
vt 0.437500 0.436916
vt 0.437500 0.436916
vt 0.062500 0.312430
vt 0.437500 0.312430
vt 0.437500 0.062510
vt 0.437500 0.188137
vt 0.062500 0.188137
vn -1.0000 0.0000 0.0000
vn 0.0410 0.0000 -0.9992
vn 0.0819 0.0000 -0.9966
vn 1.0000 0.0000 0.0000
vn -0.0410 0.0000 0.9992
vn -0.0819 0.0000 0.9966
vn 0.0000 -1.0000 0.0000
vn 0.0000 1.0000 0.0000
vn 0.0819 0.0000 0.9966
vn 0.0410 0.0000 0.9992
vn -0.0819 0.0000 -0.9966
vn -0.0410 0.0000 -0.9992
usemtl None
s 1
f 1/1/1 2/2/1 4/3/1 3/4/1
f 9/5/2 12/6/2 8/7/3 7/8/3
f 7/9/4 8/7/4 6/10/4 5/11/4
f 13/12/5 16/13/5 2/14/6 1/1/6
f 9/15/7 7/16/7 5/17/7 14/18/7
f 11/19/8 4/20/8 2/21/8 16/22/8
f 8/23/8 12/24/8 15/25/8 6/26/8
f 12/24/8 11/19/8 16/22/8 15/25/8
f 3/27/7 10/28/7 13/29/7 1/30/7
f 10/28/7 9/15/7 14/18/7 13/29/7
f 5/31/9 6/10/9 15/32/10 14/33/10
f 14/33/10 15/32/10 16/13/5 13/12/5
f 3/4/11 4/34/11 11/35/12 10/36/12
f 10/36/12 11/35/12 12/6/2 9/5/2
o trin&genericlight_99ffff_fffff_0000
v -0.187500 0.125000 0.550000
v -0.187500 0.500000 0.550000
v -0.187500 0.125000 -0.550000
v -0.187500 0.500000 -0.550000
v 0.187500 0.125000 0.550000
v 0.187500 0.500000 0.550000
v 0.187500 0.125000 -0.550000
v 0.187500 0.500000 -0.550000
v 0.187500 0.500000 0.550000
v 0.187500 0.875000 0.550000
v 0.187500 0.500000 -0.550000
v 0.187500 0.875000 -0.550000
v 0.562500 0.500000 0.550000
v 0.562500 0.875000 0.550000
v 0.562500 0.500000 -0.550000
v 0.562500 0.875000 -0.550000
v -0.562500 0.500000 0.550000
v -0.562500 0.875000 0.550000
v -0.562500 0.500000 -0.550000
v -0.562500 0.875000 -0.550000
v -0.187500 0.500000 0.550000
v -0.187500 0.875000 0.550000
v -0.187500 0.500000 -0.550000
v -0.187500 0.875000 -0.550000
vt 0.634491 0.782319
vt 0.559491 0.782319
vt 0.559491 0.707319
vt 0.634491 0.707319
vt 0.709491 0.707319
vt 0.709491 0.632319
vt 0.784491 0.632319
vt 0.784491 0.707319
vt 0.709491 0.632319
vt 0.709491 0.707319
vt 0.634491 0.707319
vt 0.634491 0.632319
vt 0.634491 0.557319
vt 0.709491 0.557319
vt 0.709491 0.632319
vt 0.784491 0.632319
vt 0.859491 0.632319
vt 0.859491 0.707319
vt 0.784491 0.707319
vt 0.709491 0.857319
vt 0.634491 0.857319
vt 0.634491 0.782319
vt 0.709491 0.782319
vt 0.634491 0.707319
vt 0.559491 0.707319
vt 0.559491 0.632319
vt 0.634491 0.632319
vt 0.559491 0.782319
vt 0.634491 0.782319
vt 0.634491 0.857319
vt 0.559491 0.857319
vt 0.709491 0.782319
vt 0.784491 0.782319
vt 0.784491 0.857319
vt 0.709491 0.857319
vt 0.559491 0.632319
vt 0.559491 0.557319
vt 0.634491 0.557319
vt 0.634491 0.632319
vt 0.559491 0.932319
vt 0.634491 0.857319
vt 0.634491 0.932319
vt 0.934491 0.557319
vt 0.934491 0.632319
vt 0.859491 0.632319
vt 0.859491 0.557319
vt 0.709491 0.782319
vt 0.634491 0.782319
vt 0.634491 0.707319
vt 0.709491 0.707319
vt 0.784491 0.632319
vt 0.784491 0.557319
vt 0.859491 0.557319
vt 0.859491 0.632319
vt 0.784491 0.707319
vt 0.859491 0.707319
vt 0.859491 0.782319
vt 0.784491 0.782319
vt 0.709491 0.632319
vt 0.709491 0.557319
vt 0.784491 0.557319
vt 0.784491 0.632319
vt 0.859491 0.782319
vt 0.859491 0.857319
vt 0.784491 0.857319
vt 0.784491 0.782319
vn -1.0000 0.0000 0.0000
vn 0.0000 0.0000 -1.0000
vn 1.0000 0.0000 0.0000
vn 0.0000 0.0000 1.0000
vn 0.0000 -1.0000 0.0000
vn 0.0000 1.0000 0.0000
usemtl None
s off
f 17/37/13 18/38/13 20/39/13 19/40/13
f 19/41/14 20/42/14 24/43/14 23/44/14
f 23/45/15 24/46/15 22/47/15 21/48/15
f 21/48/16 22/49/16 18/50/16 17/51/16
f 19/52/17 23/53/17 21/54/17 17/55/17
f 24/56/18 20/57/18 18/58/18 22/59/18
f 25/60/13 26/61/13 28/62/13 27/63/13
f 27/64/14 28/65/14 32/66/14 31/67/14
f 31/68/15 32/69/15 30/70/15 29/71/15
f 29/72/16 30/73/16 26/74/16 25/75/16
f 27/76/17 31/67/17 29/77/17 25/78/17
f 32/79/18 28/80/18 26/81/18 30/82/18
f 33/83/13 34/84/13 36/85/13 35/86/13
f 35/87/14 36/88/14 40/89/14 39/90/14
f 39/91/15 40/92/15 38/93/15 37/94/15
f 37/95/16 38/96/16 34/97/16 33/98/16
f 35/86/17 39/91/17 37/94/17 33/83/17
f 40/99/18 36/100/18 34/101/18 38/102/18
