# Blender v2.90.0 OBJ File: 'brand signs.blend'
# www.blender.org
mtllib brand_sign_middle_vashkmat_modern.mtl
o Cube
v -0.500000 0.000000 0.472595
v -0.500000 1.000000 0.472595
v -0.500000 0.000000 -0.472595
v -0.500000 1.000000 -0.472595
v 0.500000 0.000000 0.472595
v 0.500000 1.000000 0.472595
v 0.500000 0.000000 -0.472595
v 0.500000 1.000000 -0.472595
v 0.166667 0.000000 -0.500000
v -0.166667 0.000000 -0.500000
v -0.166667 1.000000 -0.500000
v 0.166667 1.000000 -0.500000
v -0.166667 0.000000 0.500000
v 0.166667 0.000000 0.500000
v 0.166667 1.000000 0.500000
v -0.166667 1.000000 0.500000
vt 0.437500 0.062510
vt 0.437500 0.436916
vt 0.062500 0.436916
vt 0.062500 0.062510
vt 0.062500 0.312430
vt 0.437500 0.312430
vt 0.437500 0.436916
vt 0.062500 0.436916
vt 0.437500 0.062510
vt 0.062500 0.436916
vt 0.062500 0.062510
vt 0.437500 0.188137
vt 0.062500 0.188137
vt 0.062500 0.062510
vt 0.062500 0.188137
vt 0.062500 0.062510
vt 0.437500 0.062510
vt 0.437500 0.188137
vt 0.062500 0.188137
vt 0.062500 0.062510
vt 0.437500 0.062510
vt 0.437500 0.188137
vt 0.062500 0.436916
vt 0.062500 0.312430
vt 0.437500 0.312430
vt 0.437500 0.436916
vt 0.062500 0.436916
vt 0.062500 0.312430
vt 0.437500 0.312430
vt 0.437500 0.436916
vt 0.437500 0.436916
vt 0.062500 0.312430
vt 0.437500 0.312430
vt 0.437500 0.062510
vt 0.437500 0.188137
vt 0.062500 0.188137
vn -1.0000 0.0000 0.0000
vn 0.0410 0.0000 -0.9992
vn 0.0819 0.0000 -0.9966
vn 1.0000 0.0000 0.0000
vn -0.0410 0.0000 0.9992
vn -0.0819 0.0000 0.9966
vn 0.0000 -1.0000 0.0000
vn 0.0000 1.0000 0.0000
vn 0.0819 0.0000 0.9966
vn 0.0410 0.0000 0.9992
vn -0.0819 0.0000 -0.9966
vn -0.0410 0.0000 -0.9992
usemtl None
s 1
f 1/1/1 2/2/1 4/3/1 3/4/1
f 9/5/2 12/6/2 8/7/3 7/8/3
f 7/9/4 8/7/4 6/10/4 5/11/4
f 13/12/5 16/13/5 2/14/6 1/1/6
f 9/15/7 7/16/7 5/17/7 14/18/7
f 11/19/8 4/20/8 2/21/8 16/22/8
f 8/23/8 12/24/8 15/25/8 6/26/8
f 12/24/8 11/19/8 16/22/8 15/25/8
f 3/27/7 10/28/7 13/29/7 1/30/7
f 10/28/7 9/15/7 14/18/7 13/29/7
f 5/31/9 6/10/9 15/32/10 14/33/10
f 14/33/10 15/32/10 16/13/5 13/12/5
f 3/4/11 4/34/11 11/35/12 10/36/12
f 10/36/12 11/35/12 12/6/2 9/5/2
o vashkmatmodern&genericlight_ff263f_fffff_0000
v 0.000000 0.500000 -0.550000
v -0.471051 0.644939 0.549999
v 0.652225 0.826112 0.550000
v 0.000000 0.173888 -0.549999
v 0.471051 0.644939 -0.549999
v 0.471051 0.391296 0.550000
v 0.471051 0.644939 0.550000
v 0.652225 0.826112 -0.549999
v 0.471051 0.391296 -0.549999
v -0.471051 0.391296 -0.550000
v -0.000000 0.173888 0.550000
v -0.000000 0.500000 0.550000
v -0.652225 0.826112 -0.550000
v -0.471051 0.644939 -0.550000
v -0.652225 0.826112 0.549999
v -0.471051 0.391296 0.549999
vt 0.754202 0.677719
vt 0.783048 0.764675
vt 0.732568 0.764675
vt 0.689298 0.677719
vt 0.790260 0.886416
vt 0.674875 0.886416
vt 0.674875 0.798120
vt 0.790260 0.798120
vt 0.559491 0.886416
vt 0.674875 0.886416
vt 0.674875 0.932319
vt 0.559491 0.932319
vt 0.559491 0.798120
vt 0.819106 0.804048
vt 0.934491 0.804048
vt 0.934491 0.874539
vt 0.819106 0.874539
vt 0.819106 0.798120
vt 0.790260 0.932319
vt 0.674875 0.932319
vt 0.934491 0.717093
vt 0.819106 0.717093
vt 0.819106 0.621322
vt 0.934491 0.621322
vt 0.783048 0.590764
vt 0.732568 0.590764
vt 0.819106 0.717093
vt 0.934491 0.717093
vt 0.819106 0.557319
vt 0.934491 0.557319
vt 0.653241 0.764675
vt 0.602760 0.764675
vt 0.559491 0.677719
vt 0.624394 0.677719
vt 0.689298 0.798120
vt 0.819106 0.557319
vt 0.602760 0.590764
vt 0.653241 0.590764
vt 0.689298 0.557319
vn 0.0000 -0.0000 -1.0000
vn 0.2941 0.9558 0.0000
vn -0.7071 0.7071 -0.0000
vn -0.2941 0.9558 0.0000
vn 0.4191 -0.9080 0.0000
vn 0.7071 0.7071 0.0000
vn -0.4191 -0.9080 -0.0000
vn 0.9231 -0.3846 0.0000
vn -0.9231 -0.3846 0.0000
vn -0.0000 0.0000 1.0000
usemtl fmt_material
s off
f 17/37/13 21/38/13 25/39/13 20/40/13
f 30/41/14 18/42/14 28/43/14 17/44/14
f 21/45/15 23/46/15 19/47/15 24/48/15
f 17/49/16 28/43/16 23/46/16 21/45/16
f 25/50/17 22/51/17 27/52/17 20/53/17
f 21/38/13 24/54/13 25/39/13
f 29/55/18 31/56/18 18/42/18 30/41/18
f 20/57/19 27/58/19 32/59/19 26/60/19
f 30/61/13 17/37/13 20/40/13 26/62/13
f 24/63/20 19/64/20 22/51/20 25/50/20
f 26/60/21 32/59/21 31/65/21 29/66/21
f 18/67/22 32/68/22 27/69/22 28/70/22
f 31/71/22 32/68/22 18/67/22
f 29/72/13 30/61/13 26/62/13
f 28/70/22 27/69/22 22/73/22 23/74/22
f 23/74/22 22/73/22 19/75/22
