# Blender v2.90.0 OBJ File: 'brand signs.blend'
# www.blender.org
mtllib brand_sign_middle_vashkmat_classic.mtl
o Cube
v -0.500000 0.000000 0.472595
v -0.500000 1.000000 0.472595
v -0.500000 0.000000 -0.472595
v -0.500000 1.000000 -0.472595
v 0.500000 0.000000 0.472595
v 0.500000 1.000000 0.472595
v 0.500000 0.000000 -0.472595
v 0.500000 1.000000 -0.472595
v 0.166667 0.000000 -0.500000
v -0.166667 0.000000 -0.500000
v -0.166667 1.000000 -0.500000
v 0.166667 1.000000 -0.500000
v -0.166667 0.000000 0.500000
v 0.166667 0.000000 0.500000
v 0.166667 1.000000 0.500000
v -0.166667 1.000000 0.500000
vt 0.437500 0.062510
vt 0.437500 0.436916
vt 0.062500 0.436916
vt 0.062500 0.062510
vt 0.062500 0.312430
vt 0.437500 0.312430
vt 0.437500 0.436916
vt 0.062500 0.436916
vt 0.437500 0.062510
vt 0.062500 0.436916
vt 0.062500 0.062510
vt 0.437500 0.188137
vt 0.062500 0.188137
vt 0.062500 0.062510
vt 0.062500 0.188137
vt 0.062500 0.062510
vt 0.437500 0.062510
vt 0.437500 0.188137
vt 0.062500 0.188137
vt 0.062500 0.062510
vt 0.437500 0.062510
vt 0.437500 0.188137
vt 0.062500 0.436916
vt 0.062500 0.312430
vt 0.437500 0.312430
vt 0.437500 0.436916
vt 0.062500 0.436916
vt 0.062500 0.312430
vt 0.437500 0.312430
vt 0.437500 0.436916
vt 0.437500 0.436916
vt 0.062500 0.312430
vt 0.437500 0.312430
vt 0.437500 0.062510
vt 0.437500 0.188137
vt 0.062500 0.188137
vn -1.0000 0.0000 0.0000
vn 0.0410 0.0000 -0.9992
vn 0.0819 0.0000 -0.9966
vn 1.0000 0.0000 0.0000
vn -0.0410 0.0000 0.9992
vn -0.0819 0.0000 0.9966
vn 0.0000 -1.0000 0.0000
vn 0.0000 1.0000 0.0000
vn 0.0819 0.0000 0.9966
vn 0.0410 0.0000 0.9992
vn -0.0819 0.0000 -0.9966
vn -0.0410 0.0000 -0.9992
usemtl None
s 1
f 1/1/1 2/2/1 4/3/1 3/4/1
f 9/5/2 12/6/2 8/7/3 7/8/3
f 7/9/4 8/7/4 6/10/4 5/11/4
f 13/12/5 16/13/5 2/14/6 1/1/6
f 9/15/7 7/16/7 5/17/7 14/18/7
f 11/19/8 4/20/8 2/21/8 16/22/8
f 8/23/8 12/24/8 15/25/8 6/26/8
f 12/24/8 11/19/8 16/22/8 15/25/8
f 3/27/7 10/28/7 13/29/7 1/30/7
f 10/28/7 9/15/7 14/18/7 13/29/7
f 5/31/9 6/10/9 15/32/10 14/33/10
f 14/33/10 15/32/10 16/13/5 13/12/5
f 3/4/11 4/34/11 11/35/12 10/36/12
f 10/36/12 11/35/12 12/6/2 9/5/2
o vashkmat_classic
v 0.000000 0.757064 0.550000
v -0.514128 0.757064 0.550000
v -0.642660 0.500000 0.550000
v 0.000000 0.242936 0.549999
v -0.514128 0.757064 -0.549999
v 0.000000 0.757064 -0.549999
v 0.000000 0.242936 -0.550000
v -0.642660 0.500000 -0.550000
v 0.514128 0.757064 0.550000
v 0.642660 0.500000 0.550000
v 0.514128 0.757064 -0.549999
v 0.642660 0.500000 -0.550000
vt 0.934491 0.601264
vt 0.934491 0.612983
vt 0.908040 0.615913
vt 0.881588 0.601264
vt 0.934491 0.560249
vt 0.934491 0.571968
vt 0.881588 0.571968
vt 0.908040 0.557319
vt 0.735190 0.932319
vt 0.735190 0.557319
vt 0.788092 0.557319
vt 0.788092 0.932319
vt 0.559491 0.932319
vt 0.559491 0.557319
vt 0.630713 0.557319
vt 0.630713 0.932319
vt 0.801318 0.557319
vt 0.801318 0.932319
vt 0.801318 0.932319
vt 0.801318 0.557319
vt 0.852805 0.557319
vt 0.852806 0.932319
vt 0.934491 0.589546
vt 0.908040 0.586616
vt 0.934491 0.583686
vt 0.908040 0.586616
vt 0.682288 0.932319
vt 0.682287 0.557319
vt 0.682287 0.557319
vt 0.682287 0.932319
vt 0.852806 0.932319
vt 0.852806 0.557319
vt 0.881588 0.557319
vt 0.881588 0.932319
vn -0.0000 -0.0000 1.0000
vn -0.0000 0.0000 -1.0000
vn 0.0000 1.0000 0.0000
vn -0.3714 -0.9285 0.0000
vn -0.8944 0.4472 0.0000
vn 1.0000 0.0000 0.0000
vn 0.3714 -0.9285 0.0000
vn 0.8944 0.4472 0.0000
usemtl fmt_material.001
s 1
f 17/37/13 18/38/13 19/39/13 20/40/13
f 21/41/14 22/42/14 23/43/14 24/44/14
f 17/45/15 22/46/15 21/47/15 18/48/15
f 19/49/16 24/50/16 23/51/16 20/52/16
f 18/48/17 21/47/17 24/53/17 19/54/17
f 22/55/18 17/56/18 20/57/18 23/58/18
f 25/59/13 17/37/13 20/40/13 26/60/13
f 22/42/14 27/61/14 28/62/14 23/43/14
f 25/63/15 27/64/15 22/46/15 17/45/15
f 20/52/19 23/51/19 28/65/19 26/66/19
f 27/67/20 25/68/20 26/69/20 28/70/20
